<svg
  class="apollo-logo jss12"
  width="200"
  height="60"
  viewBox="0 0 200 60"
  fill="none"
  xmlns="http://www.w3.org/2000/svg"
>
  <g class="logo slide-in-blurred-bottom">
    <path
      class="top"
      d="M25.3174 1.27085L24 0L22.6826 1.27085C15.9365 7.75654 11.9699 15.6592 11 24L15.5891 20.3043C16.9788 14.8996 19.8018 9.81619 24 5.37553C28.1982 9.81619 31.0212 14.8996 32.4109 20.2897L37 23.9854C36.0445 15.6446 32.078 7.74194 25.3174 1.27085Z"
      fill="white"
    ></path>
    <path
      class="house"
      d="M36.4702 26.4193L32.3436 23.1079L23.4787 16L14.6137 23.1079L10.4871 26.4193L0 34.8118H6.9013L10.7148 31.7574C10.8002 32.471 10.8998 33.1989 11.0279 33.9126C11.5259 36.7101 12.3227 39.4362 13.4326 42.0624L15.9086 48H15.937C17.3173 47.4434 20.1916 47.058 23.5071 47.058C26.8226 47.058 29.6969 47.4434 31.0772 48H31.1057L33.5816 42.0624C34.6773 39.4505 35.4883 36.7101 35.9864 33.9126C36.1144 33.1989 36.2141 32.471 36.2994 31.7574L40.1129 34.8118H47L36.4702 26.4193ZM32.5428 31.2007C32.1871 34.4407 31.3618 37.6236 30.0954 40.6209L28.587 44.2462H18.3987L16.8904 40.6209C15.624 37.6236 14.7987 34.4407 14.4429 31.2007C14.3576 30.4442 14.3006 29.6735 14.2864 28.917L23.5071 21.5379L32.7278 28.917C32.6851 29.6592 32.6282 30.43 32.5428 31.2007Z"
      fill="white"
    ></path>
    <path
      class="fire"
      d="M23.5058 60C23.5058 60 19.3361 50.9972 20.0915 50.3025C21.9799 48.5658 25.0317 48.5658 26.905 50.3025C27.6755 50.9972 23.5058 60 23.5058 60Z"
      fill="white"
    ></path>
    <path class="window" d="M23 27H21V29H23V27Z" fill="white"></path>
    <path class="window" d="M23 30H21V32H23V29Z" fill="white"></path>
    <path class="window" d="M26 27H24V29H26V27Z" fill="white"></path>
    <path class="window" d="M26 30H24V32H26V29Z" fill="white"></path>
  </g>
  <g class="text">
    <path
      class="apollo"
      d="M61.5139 36L60.5972 33.464H54.4028L53.4861 36H50L55.5694 21H59.4306L65 36H61.5139ZM57.5 24.1988L55.25 30.6542H59.7639L57.5 24.1988Z"
      fill="white"
    ></path>
    <path
      class="apollo"
      d="M67 36V21H73.9821C77.2222 21 79 23.2046 79 25.8415C79 28.4496 77.2079 30.6542 73.9821 30.6542H70.1685V36H67ZM75.7455 25.8415C75.7455 24.5879 74.785 23.8242 73.5233 23.8242H70.1685V27.8444H73.5233C74.785 27.8444 75.7455 27.0807 75.7455 25.8415Z"
      fill="white"
    ></path>
    <path
      class="apollo"
      d="M80 28.5C80 24.1227 83.3676 21 88.0147 21C92.6324 21 96 24.1366 96 28.5C96 32.8773 92.6324 36 88.0147 36C83.3824 36.0139 80 32.8773 80 28.5ZM92.6471 28.5C92.6471 25.7816 90.8382 23.7323 88.0147 23.7323C85.1618 23.7323 83.3529 25.7816 83.3529 28.5C83.3529 31.2044 85.1618 33.2676 88.0147 33.2676C90.8382 33.2676 92.6471 31.2044 92.6471 28.5Z"
      fill="white"
    ></path>
    <path
      class="apollo"
      d="M98 36V21H101.027V33.1902H107V36H98Z"
      fill="white"
    ></path>
    <path
      class="apollo"
      d="M109 36V21H112.027V33.1902H118V36H109Z"
      fill="white"
    ></path>
    <path
      class="apollo"
      d="M119 28.5C119 24.1227 122.368 21 127.015 21C131.632 21 135 24.1366 135 28.5C135 32.8773 131.632 36 127.015 36C122.368 36.0139 119 32.8773 119 28.5ZM131.632 28.5C131.632 25.7816 129.824 23.7323 127 23.7323C124.147 23.7323 122.338 25.7816 122.338 28.5C122.338 31.2044 124.147 33.2676 127 33.2676C129.824 33.2676 131.632 31.2044 131.632 28.5Z"
      fill="white"
    ></path>
    <path class="immo" d="M144 36V21H146V36H144Z" fill="white"></path>
    <path
      class="immo"
      d="M162.088 36V23.6513L156.882 36H156.103L150.912 23.6513V36H149V21H151.735L156.485 32.2824L161.265 21H164V36H162.088Z"
      fill="white"
    ></path>
    <path
      class="immo"
      d="M181.088 36V23.6513L175.882 36H175.103L169.912 23.6513V36H168V21H170.735L175.485 32.2824L180.265 21H183V36H181.088Z"
      fill="white"
    ></path>
    <path
      class="immo"
      d="M185 28.5C185 24.2203 188.017 21 192.5 21C196.954 21 200 24.2203 200 28.5C200 32.7797 196.968 36 192.5 36C188.003 36.0139 185 32.7936 185 28.5ZM198.042 28.5C198.042 25.1124 195.866 22.6032 192.5 22.6032C189.105 22.6032 186.958 25.0985 186.958 28.5C186.958 31.8736 189.105 34.3968 192.5 34.3968C195.866 34.3968 198.042 31.8736 198.042 28.5Z"
      fill="white"
    ></path>
  </g>
</svg>